<svg width="80" height="80" viewBox="0 0 80 80" fill="none" xmlns="http://www.w3.org/2000/svg">
<rect width="80" height="80" rx="10" fill="#E64E17"/>
<path d="M56.5874 22.0545C56.5699 22.0601 56.5514 22.0524 56.534 22.0589L21.8465 35.0667C21.4664 35.2096 21.1976 35.5536 21.151 35.958C21.1044 36.3624 21.2876 36.7583 21.6263 36.9838L29.231 42.0529L32.0131 53.6776C32.0204 53.7082 32.0392 53.7325 32.0489 53.7618C32.299 54.5245 33.2593 54.7666 33.8338 54.192L39.2759 48.75L47.6419 54.3275C48.2481 54.734 49.0838 54.4306 49.2859 53.7231L57.9578 23.3715C58.1906 22.5546 57.4238 21.786 56.5874 22.0545ZM34.65 44.1038C34.4705 44.2856 34.4164 44.433 34.3535 44.6622C34.3527 44.6665 34.3508 44.6705 34.35 44.6746L33.1404 49.0728L31.417 41.8713L48.2062 30.3592L34.65 44.1038Z" fill="#F1F1F1"/>
<path d="M28.2703 51.7198C27.8469 51.2964 27.1609 51.2964 26.7375 51.7198L21.3176 57.1398C20.8941 57.5632 20.8941 58.2492 21.3176 58.6726C21.741 59.0961 22.4269 59.0961 22.8504 58.6726L28.2703 53.2527C28.6937 52.8293 28.6937 52.1432 28.2703 51.7198Z" fill="#F1F1F1"/>
<path d="M28.2703 45.2159C27.8469 44.7925 27.1609 44.7924 26.7375 45.2159L21.3176 50.6359C20.8941 51.0593 20.8941 51.7453 21.3176 52.1687C21.741 52.5922 22.4269 52.5922 22.8504 52.1687L28.2703 46.7488C28.6937 46.3254 28.6937 45.6393 28.2703 45.2159Z" fill="#F1F1F1"/>
</svg>
